<svg width="221" height="99" viewBox="0 0 221 99" fill="none" xmlns="http://www.w3.org/2000/svg">
<rect x="110.073" y="18.2837" width="77.44" height="12.32" transform="rotate(-0.908672 110.073 18.2837)" fill="#06B559"/>
<rect x="110.073" y="18.2837" width="77.44" height="12.32" transform="rotate(-0.908672 110.073 18.2837)" fill="black" fill-opacity="0.25"/>
<rect x="186.754" y="14.251" width="28.864" height="18.304" rx="3.52" transform="rotate(-0.908672 186.754 14.251)" fill="#06B559"/>
<path d="M123.919 6.04276V11.8758H121.733H96.1484V6.04276C96.1484 3.25698 98.4054 1 101.191 1H118.876C121.662 1 123.919 3.25698 123.919 6.04276Z" fill="#06B559"/>
<path d="M146.189 33.7131V38.3176H71.6921V33.7131C71.6921 30.4702 72.3351 27.2942 73.5538 24.3517C74.7728 21.4136 76.5632 18.714 78.8537 16.4189C83.4393 11.8332 89.6629 9.25732 96.1483 9.25732H121.733C124.976 9.25732 128.152 9.90032 131.094 11.119C134.033 12.3333 136.732 14.1237 139.027 16.4189C139.484 16.876 139.923 17.3473 140.337 17.8379C142.666 20.5615 144.351 23.7568 145.299 27.1757C145.884 29.2846 146.189 31.4845 146.189 33.7131Z" fill="#06B559"/>
<path d="M92.8382 24.3512C94.0572 21.4131 95.8476 18.7135 98.1381 16.4184C102.724 11.8327 108.947 9.25684 115.433 9.25684H96.1488C89.6634 9.25684 83.4398 11.8327 78.8541 16.4184C76.5637 18.7135 74.7733 21.4135 73.5543 24.3512C72.3352 27.2941 71.6926 30.4701 71.6926 33.7126V38.3172H90.9765V33.713C90.9761 30.4701 91.6191 27.2941 92.8382 24.3512Z" fill="black" fill-opacity="0.25"/>
<path d="M87.8866 85.0115C87.8866 79.4451 83.3727 74.9312 77.8062 74.9312C72.235 74.9312 67.7207 79.4451 67.7207 85.0115C67.7207 90.578 72.2347 95.0919 77.8062 95.0919C83.3727 95.0923 87.8866 90.578 87.8866 85.0115Z" fill="#999999"/>
<path d="M123.138 86.7642C123.138 82.1645 119.41 78.436 114.81 78.436C110.215 78.436 106.486 82.1645 106.486 86.7642C106.486 91.364 110.215 95.0924 114.81 95.0924C119.41 95.0924 123.138 91.364 123.138 86.7642Z" fill="#999999"/>
<path d="M165.079 84.3687C165.079 78.4452 160.275 73.6406 154.351 73.6406C148.432 73.6406 143.628 78.4452 143.628 84.3687C143.628 90.2923 148.432 95.0921 154.351 95.0921C160.275 95.0921 165.079 90.2923 165.079 84.3687Z" fill="#999999"/>
<path d="M189.821 78.5737C191.831 77.207 193.15 74.9023 193.15 72.2882C193.15 68.0932 189.745 64.6885 185.55 64.6885C181.35 64.6885 177.945 68.0932 177.945 72.2882C177.945 76.488 181.35 79.888 185.55 79.888C187.131 79.888 188.607 79.4025 189.821 78.5737Z" fill="#999999"/>
<path d="M40.6218 82.9976C41.6121 83.3547 42.6788 83.55 43.7931 83.55C48.9213 83.55 53.0832 79.3932 53.0832 74.2599C53.0832 69.1317 48.9213 64.9697 43.7931 64.9697C38.6597 64.9697 34.5029 69.1313 34.5029 74.2599C34.5029 78.2694 37.041 81.6832 40.5978 82.9881C40.6076 82.9881 40.6124 82.9928 40.6218 82.9976Z" fill="#999999"/>
<path d="M189.821 78.5731L177.683 90.2155C174.426 93.3438 170.084 95.0913 165.57 95.0913H154.351C160.274 95.0913 165.079 90.2915 165.079 84.3679C165.079 78.4443 160.274 73.6398 154.351 73.6398C148.432 73.6398 143.627 78.4443 143.627 84.3679C143.627 90.2915 148.432 95.0913 154.351 95.0913H114.81C119.409 95.0913 123.138 91.3629 123.138 86.7631C123.138 82.1633 119.409 78.4349 114.81 78.4349C110.215 78.4349 106.486 82.1633 106.486 86.7631C106.486 91.3629 110.215 95.0913 114.81 95.0913H77.8063C83.3727 95.0913 87.8866 90.5773 87.8866 85.0109C87.8866 79.4445 83.3727 74.9305 77.8063 74.9305C72.2351 74.9305 67.7207 79.4445 67.7207 85.0109C67.7207 90.5773 72.2347 95.0913 77.8063 95.0913H70.3447C67.6829 95.0913 65.0495 94.5723 62.5831 93.5722L40.6221 82.9965C41.6124 83.3536 42.679 83.5489 43.7933 83.5489C48.9215 83.5489 53.0835 79.3921 53.0835 74.2588C53.0835 69.1306 48.9215 64.9686 43.7933 64.9686L185.55 64.6875C181.35 64.6875 177.946 68.0923 177.946 72.2873C177.946 76.487 181.35 79.887 185.55 79.887C187.131 79.8874 188.607 79.4019 189.821 78.5731Z" fill="#06B559"/>
<path d="M189.821 78.5731L177.683 90.2155C174.426 93.3438 170.084 95.0913 165.57 95.0913H154.351C160.274 95.0913 165.079 90.2915 165.079 84.3679C165.079 78.4443 160.274 73.6398 154.351 73.6398C148.432 73.6398 143.627 78.4443 143.627 84.3679C143.627 90.2915 148.432 95.0913 154.351 95.0913H114.81C119.409 95.0913 123.138 91.3629 123.138 86.7631C123.138 82.1633 119.409 78.4349 114.81 78.4349C110.215 78.4349 106.486 82.1633 106.486 86.7631C106.486 91.3629 110.215 95.0913 114.81 95.0913H77.8063C83.3727 95.0913 87.8866 90.5773 87.8866 85.0109C87.8866 79.4445 83.3727 74.9305 77.8063 74.9305C72.2351 74.9305 67.7207 79.4445 67.7207 85.0109C67.7207 90.5773 72.2347 95.0913 77.8063 95.0913H70.3447C67.6829 95.0913 65.0495 94.5723 62.5831 93.5722L40.6221 82.9965C41.6124 83.3536 42.679 83.5489 43.7933 83.5489C48.9215 83.5489 53.0835 79.3921 53.0835 74.2588C53.0835 69.1306 48.9215 64.9686 43.7933 64.9686L185.55 64.6875C181.35 64.6875 177.946 68.0923 177.946 72.2873C177.946 76.487 181.35 79.887 185.55 79.887C187.131 79.8874 188.607 79.4019 189.821 78.5731Z" fill="black" fill-opacity="0.25"/>
<path d="M173.069 52.1978H50.9455H44.8125L51.1054 40.2392C51.9587 38.6177 53.6396 37.603 55.4721 37.603H71.6926H146.19H154.637L173.069 52.1978Z" fill="#06B559"/>
<path d="M71.6922 37.603H55.4721C53.6404 37.603 51.9591 38.6181 51.1054 40.2392L44.8125 52.1978H50.9455H69.8101L77.4906 37.603H71.6922Z" fill="#06B559"/>
<path d="M195.085 61.0634L187.268 55.7686H50.9455C46.3119 55.7686 41.8027 56.6939 37.5427 58.5182L32.8165 60.5456L30 53.9818L34.7285 51.9532C39.8847 49.745 45.3401 48.626 50.9455 48.626H188.364C189.079 48.626 189.776 48.8402 190.367 49.2406L199.09 55.15L195.085 61.0634Z" fill="#06B559"/>
<path d="M72.3352 37.6113H55.8298C54.0783 37.6113 52.3621 38.2698 51.5458 39.5013L46.6318 48.6993H52.4965H70.5355L77.8798 37.6113H72.3352Z" fill="black" fill-opacity="0.25"/>
<path d="M195.085 61.0643L187.268 55.7696H50.9455C46.3119 55.7696 41.8027 56.6949 37.5427 58.5191L32.8165 60.5466L30 53.9827L34.7285 51.9541C39.8847 49.746 45.3401 48.627 50.9455 48.627H188.364C189.079 48.627 189.776 48.8412 190.367 49.2416L199.09 55.151L195.085 61.0643Z" fill="black" fill-opacity="0.25"/>
<path d="M77.8064 98.1868C70.5385 98.1868 64.626 92.2762 64.626 85.0111C64.626 77.746 70.5385 71.8354 77.8064 71.8354C85.0714 71.8354 90.982 77.746 90.982 85.0111C90.982 92.2762 85.0711 98.1868 77.8064 98.1868ZM77.8064 78.026C73.9516 78.026 70.8161 81.1598 70.8161 85.0115C70.8161 88.8632 73.9516 91.997 77.8064 91.997C81.658 91.997 84.7919 88.8632 84.7919 85.0115C84.7919 81.1595 81.658 78.026 77.8064 78.026Z" fill="#373737"/>
<path d="M114.81 98.1868C108.513 98.1868 103.391 93.0621 103.391 86.7633C103.391 80.4645 108.513 75.3398 114.81 75.3398C121.108 75.3398 126.233 80.4645 126.233 86.7633C126.233 93.0621 121.108 98.1868 114.81 98.1868ZM114.81 81.5304C111.927 81.5304 109.581 83.8779 109.581 86.7633C109.581 89.6487 111.927 91.9963 114.81 91.9963C117.695 91.9963 120.043 89.6487 120.043 86.7633C120.043 83.8779 117.695 81.5304 114.81 81.5304Z" fill="#373737"/>
<path d="M154.351 98.187C146.732 98.187 140.532 91.9878 140.532 84.3683C140.532 76.7461 146.731 70.5449 154.351 70.5449C161.973 70.5449 168.174 76.7461 168.174 84.3683C168.174 91.9881 161.973 98.187 154.351 98.187ZM154.351 76.7355C150.145 76.7355 146.723 80.1595 146.723 84.3683C146.723 88.5743 150.145 91.9964 154.351 91.9964C158.56 91.9964 161.984 88.5743 161.984 84.3683C161.984 80.1599 158.56 76.7355 154.351 76.7355Z" fill="#373737"/>
<path d="M185.55 82.9825C179.65 82.9825 174.85 78.1847 174.85 72.2879C174.85 66.3911 179.65 61.5933 185.55 61.5933C191.446 61.5933 196.244 66.3911 196.244 72.2879C196.244 75.8321 194.493 79.1388 191.561 81.1327C189.786 82.3423 187.707 82.9825 185.55 82.9825ZM185.55 67.783C183.063 67.783 181.04 69.8037 181.04 72.2875C181.04 74.7713 183.063 76.792 185.55 76.792C186.459 76.792 187.333 76.5239 188.076 76.0163C188.078 76.0155 188.079 76.0143 188.081 76.0136C189.316 75.1733 190.055 73.7802 190.055 72.2875C190.054 69.8037 188.033 67.783 185.55 67.783Z" fill="#373737"/>
<path d="M43.7934 86.6444C42.3463 86.6444 40.9265 86.3968 39.572 85.9081C39.5448 85.8987 39.518 85.888 39.4916 85.8782C34.6548 84.0843 31.408 79.4207 31.408 74.2594C31.408 67.4302 36.9638 61.874 43.7934 61.874C50.623 61.874 56.1788 67.4298 56.1788 74.2594C56.1784 81.0886 50.6226 86.6444 43.7934 86.6444ZM41.7285 80.1058C42.3904 80.3373 43.0846 80.4543 43.7926 80.4543C47.2088 80.4543 49.9874 77.6752 49.9874 74.2594C49.9874 70.8436 47.2084 68.0646 43.7926 68.0646C40.3768 68.0646 37.5977 70.8436 37.5977 74.2594C37.5977 76.8409 39.22 79.173 41.6376 80.072C41.6687 80.083 41.6986 80.094 41.7285 80.1058Z" fill="#373737"/>
<path d="M165.57 98.1866H70.3447C67.2805 98.1866 64.2778 97.5995 61.4204 96.4403C61.3593 96.4155 61.2995 96.3888 61.2404 96.3608L39.4034 85.8449C34.6151 84.0274 31.408 79.3894 31.408 74.2588C31.408 67.4296 36.9638 61.8734 43.7934 61.8734L185.544 61.5923C185.546 61.5923 185.548 61.5923 185.55 61.5923C191.447 61.5923 196.245 66.3901 196.245 72.2869C196.245 75.7374 194.586 78.9626 191.793 80.9703L179.826 92.4485C175.975 96.149 170.911 98.1866 165.57 98.1866ZM63.8333 90.7396C65.9221 91.574 68.1121 91.9969 70.3443 91.9969H165.569C169.304 91.9969 172.844 90.5715 175.539 87.9838L187.678 76.3394C187.803 76.2197 187.937 76.1106 188.08 76.0138C189.316 75.1735 190.054 73.7804 190.054 72.2877C190.054 69.8055 188.036 67.7856 185.554 67.7832L43.7989 68.0643C40.3768 68.0643 37.5981 70.8434 37.5981 74.2592C37.5981 76.8391 39.218 79.1701 41.6336 80.0706C41.7569 80.1135 41.877 80.1643 41.9931 80.2222L63.8333 90.7396Z" fill="#373737"/>
</svg>
