<svg width="256" height="256" viewBox="0 0 256 256" fill="none" xmlns="http://www.w3.org/2000/svg">
<g clip-path="url(#clip0_144_2727)">
<rect width="256" height="256" fill="#BAFFFF"/>
<rect x="109.942" y="82.2837" width="77.44" height="12.32" transform="rotate(-0.417045 109.942 82.2837)" fill="#06B559"/>
<rect x="109.942" y="82.2837" width="77.44" height="12.32" transform="rotate(-0.417045 109.942 82.2837)" fill="black" fill-opacity="0.25"/>
<rect x="186.655" y="78.9092" width="28.864" height="18.304" rx="3.52" transform="rotate(-0.417045 186.655 78.9092)" fill="#06B559"/>
<path d="M96.4168 181.884C96.4168 176.373 91.9479 171.904 86.4372 171.904C80.9217 171.904 76.4525 176.373 76.4525 181.884C76.4525 187.395 80.9213 191.863 86.4372 191.863C91.9479 191.864 96.4168 187.395 96.4168 181.884Z" fill="#999999"/>
<path d="M131.316 183.619C131.316 179.065 127.624 175.374 123.071 175.374C118.522 175.374 114.83 179.065 114.83 183.619C114.83 188.173 118.522 191.864 123.071 191.864C127.624 191.864 131.316 188.173 131.316 183.619Z" fill="#999999"/>
<path d="M172.837 181.248C172.837 175.383 168.081 170.627 162.216 170.627C156.357 170.627 151.6 175.383 151.6 181.248C151.6 187.112 156.357 191.864 162.216 191.864C168.081 191.864 172.837 187.112 172.837 181.248Z" fill="#999999"/>
<path d="M197.332 175.51C199.321 174.157 200.627 171.876 200.627 169.288C200.627 165.135 197.256 161.764 193.103 161.764C188.946 161.764 185.575 165.135 185.575 169.288C185.575 173.446 188.946 176.812 193.103 176.812C194.668 176.812 196.13 176.331 197.332 175.51Z" fill="#999999"/>
<path d="M49.6246 179.891C50.605 180.244 51.661 180.437 52.7641 180.437C57.841 180.437 61.9614 176.322 61.9614 171.24C61.9614 166.163 57.841 162.043 52.7641 162.043C47.6821 162.043 43.5669 166.163 43.5669 171.24C43.5669 175.21 46.0796 178.589 49.6008 179.881C49.6105 179.881 49.6152 179.886 49.6246 179.891Z" fill="#999999"/>
<path d="M197.332 175.51L185.316 187.036C182.091 190.133 177.792 191.863 173.323 191.863H162.217C168.081 191.863 172.837 187.112 172.837 181.247C172.837 175.383 168.081 170.626 162.217 170.626C156.357 170.626 151.6 175.383 151.6 181.247C151.6 187.112 156.357 191.863 162.217 191.863H123.071C127.625 191.863 131.316 188.172 131.316 183.619C131.316 179.065 127.625 175.374 123.071 175.374C118.522 175.374 114.83 179.065 114.83 183.619C114.83 188.172 118.522 191.863 123.071 191.863H86.4373C91.9481 191.863 96.4169 187.395 96.4169 181.884C96.4169 176.373 91.9481 171.904 86.4373 171.904C80.9219 171.904 76.4527 176.373 76.4527 181.884C76.4527 187.395 80.9215 191.863 86.4373 191.863H79.0504C76.4153 191.863 73.8082 191.35 71.3664 190.36L49.625 179.89C50.6054 180.243 51.6614 180.436 52.7645 180.436C57.8415 180.436 61.9618 176.321 61.9618 171.239C61.9618 166.162 57.8415 162.042 52.7645 162.042L193.104 161.764C188.946 161.764 185.575 165.134 185.575 169.287C185.575 173.445 188.946 176.811 193.104 176.811C194.668 176.812 196.13 176.331 197.332 175.51Z" fill="#06B559"/>
<path d="M197.332 175.51L185.316 187.036C182.091 190.133 177.792 191.863 173.323 191.863H162.217C168.081 191.863 172.837 187.112 172.837 181.247C172.837 175.383 168.081 170.626 162.217 170.626C156.357 170.626 151.6 175.383 151.6 181.247C151.6 187.112 156.357 191.863 162.217 191.863H123.071C127.625 191.863 131.316 188.172 131.316 183.619C131.316 179.065 127.625 175.374 123.071 175.374C118.522 175.374 114.83 179.065 114.83 183.619C114.83 188.172 118.522 191.863 123.071 191.863H86.4373C91.9481 191.863 96.4169 187.395 96.4169 181.884C96.4169 176.373 91.9481 171.904 86.4373 171.904C80.9219 171.904 76.4527 176.373 76.4527 181.884C76.4527 187.395 80.9215 191.863 86.4373 191.863H79.0504C76.4153 191.863 73.8082 191.35 71.3664 190.36L49.625 179.89C50.6054 180.243 51.6614 180.436 52.7645 180.436C57.8415 180.436 61.9618 176.321 61.9618 171.239C61.9618 166.162 57.8415 162.042 52.7645 162.042L193.104 161.764C188.946 161.764 185.575 165.134 185.575 169.287C185.575 173.445 188.946 176.811 193.104 176.811C194.668 176.812 196.13 176.331 197.332 175.51Z" fill="black" fill-opacity="0.25"/>
<path d="M86.4374 194.927C79.2422 194.927 73.3888 189.076 73.3888 181.883C73.3888 174.691 79.2422 168.839 86.4374 168.839C93.6298 168.839 99.4813 174.691 99.4813 181.883C99.4813 189.076 93.6294 194.927 86.4374 194.927ZM86.4374 174.968C82.6211 174.968 79.517 178.071 79.517 181.884C79.517 185.697 82.6211 188.799 86.4374 188.799C90.2505 188.799 93.353 185.697 93.353 181.884C93.353 178.07 90.2505 174.968 86.4374 174.968Z" fill="#373737"/>
<path d="M123.071 194.928C116.837 194.928 111.766 189.854 111.766 183.618C111.766 177.382 116.837 172.309 123.071 172.309C129.307 172.309 134.38 177.382 134.38 183.618C134.38 189.854 129.307 194.928 123.071 194.928ZM123.071 178.438C120.217 178.438 117.895 180.762 117.895 183.618C117.895 186.475 120.217 188.799 123.071 188.799C125.928 188.799 128.252 186.475 128.252 183.618C128.252 180.762 125.927 178.438 123.071 178.438Z" fill="#373737"/>
<path d="M162.216 194.928C154.674 194.928 148.536 188.79 148.536 181.247C148.536 173.701 154.673 167.562 162.216 167.562C169.762 167.562 175.902 173.701 175.902 181.247C175.902 188.791 169.762 194.928 162.216 194.928ZM162.216 173.691C158.053 173.691 154.665 177.08 154.665 181.247C154.665 185.411 158.053 188.799 162.216 188.799C166.383 188.799 169.773 185.411 169.773 181.247C169.773 177.081 166.383 173.691 162.216 173.691Z" fill="#373737"/>
<path d="M193.103 179.876C187.262 179.876 182.51 175.126 182.51 169.288C182.51 163.45 187.262 158.7 193.103 158.7C198.941 158.7 203.691 163.45 203.691 169.288C203.691 172.797 201.957 176.07 199.055 178.044C197.297 179.242 195.239 179.876 193.103 179.876ZM193.103 164.828C190.642 164.828 188.639 166.829 188.639 169.288C188.639 171.746 190.642 173.747 193.103 173.747C194.003 173.747 194.868 173.481 195.605 172.979C195.606 172.978 195.607 172.977 195.609 172.976C196.832 172.144 197.563 170.765 197.563 169.288C197.563 166.829 195.562 164.828 193.103 164.828Z" fill="#373737"/>
<path d="M52.7646 183.501C51.332 183.501 49.9264 183.256 48.5854 182.772C48.5585 182.762 48.532 182.752 48.5059 182.742C43.7174 180.966 40.5031 176.349 40.5031 171.24C40.5031 164.479 46.0033 158.978 52.7646 158.978C59.5259 158.978 65.0262 164.478 65.0262 171.24C65.0258 178 59.5255 183.501 52.7646 183.501ZM50.7204 177.028C51.3757 177.257 52.0629 177.372 52.7638 177.372C56.1458 177.372 58.8967 174.621 58.8967 171.24C58.8967 167.858 56.1454 165.107 52.7638 165.107C49.3822 165.107 46.6309 167.858 46.6309 171.24C46.6309 173.795 48.2369 176.104 50.6304 176.994C50.6612 177.005 50.6908 177.016 50.7204 177.028Z" fill="#373737"/>
<path d="M173.323 194.928H79.0504C76.0169 194.928 73.0442 194.346 70.2153 193.199C70.1549 193.174 70.0957 193.148 70.0372 193.12L48.4186 182.709C43.6781 180.91 40.5031 176.318 40.5031 171.239C40.5031 164.478 46.0033 158.978 52.7646 158.978L193.098 158.699C193.1 158.699 193.102 158.699 193.104 158.699C198.942 158.699 203.692 163.449 203.692 169.287C203.692 172.703 202.05 175.896 199.284 177.883L187.437 189.247C183.624 192.91 178.611 194.928 173.323 194.928ZM72.6041 187.555C74.6721 188.381 76.8402 188.8 79.05 188.8H173.323C177.02 188.8 180.525 187.389 183.193 184.827L195.21 173.299C195.334 173.18 195.467 173.072 195.609 172.976C196.832 172.145 197.563 170.765 197.563 169.288C197.563 166.83 195.565 164.831 193.108 164.828L52.7701 165.107C49.3822 165.107 46.6313 167.858 46.6313 171.239C46.6313 173.794 48.235 176.101 50.6265 176.993C50.7485 177.035 50.8674 177.086 50.9824 177.143L72.6041 187.555Z" fill="#373737"/>
<rect x="73.392" y="61" width="5.184" height="57.6" rx="2.592" fill="#373737"/>
<path d="M101.904 80.584C89.376 83.176 87.072 95.848 91.968 103.192L115.584 103.912V96.712H121.632C131.856 96.712 132 80.584 121.632 80.584H101.904Z" fill="#06B559"/>
<path d="M65.04 133H81.744V113.56H73.248C67.7184 114.136 65.472 119.368 65.04 121.912V133Z" fill="#06B559"/>
<path d="M65.04 133H81.744V113.56H73.248C67.7184 114.136 65.472 119.368 65.04 121.912V133Z" fill="black" fill-opacity="0.25"/>
<path d="M81.744 113.992V135.16H175.056C166.186 120.99 150 101.32 118.608 99.7358H96.576C87.1296 100.312 81.984 110.44 81.744 113.992Z" fill="#06B559"/>
<path d="M81.744 113.992V135.16H175.056C166.186 120.99 150 101.32 118.608 99.7358H96.576C87.1296 100.312 81.984 110.44 81.744 113.992Z" fill="black" fill-opacity="0.25"/>
<path d="M136.589 126.232C118.963 124.274 114.605 106.984 115.565 99.5923C145.661 99.5923 162.989 117.832 169.133 126.232H136.589Z" fill="#373737"/>
<path d="M182.148 152.363H57.1668H50.8903L57.3304 143.278C58.2036 142.046 59.9239 141.275 61.7993 141.275H78.3993H154.639H163.284L182.148 152.363Z" fill="#06B559"/>
<path d="M64.752 152.296H179.928H185.712L179.777 136.485C178.972 134.342 177.387 133 175.659 133H160.361H90.1025H82.136L64.752 152.296Z" fill="#06B559"/>
<path d="M79.5601 133H62.9776C61.105 133 59.3861 134.343 58.5134 136.486L52.08 152.296H58.35H77.6359L85.4879 133H79.5601Z" fill="#06B559"/>
<path d="M205.871 161.823L197.866 156.209H58.2653C53.5202 156.209 48.9025 157.19 44.5401 159.124L39.7003 161.274L36.816 154.314L41.6583 152.163C46.9384 149.822 52.525 148.635 58.2653 148.635H198.989C199.72 148.635 200.434 148.862 201.039 149.287L209.973 155.553L205.871 161.823Z" fill="#06B559"/>
<path d="M76.7811 133.037H62.0073C59.8842 132.708 58.3067 134.64 57.576 136.33L53.52 148.84H58.9868H75.2601L81.744 133.037H76.7811Z" fill="black" fill-opacity="0.25"/>
<path d="M205.871 161.823L197.866 156.209H58.2653C53.5202 156.209 48.9025 157.19 44.5401 159.124L39.7003 161.274L36.816 154.314L41.6583 152.163C46.9384 149.822 52.525 148.635 58.2653 148.635H198.989C199.72 148.635 200.434 148.862 201.039 149.287L209.973 155.553L205.871 161.823Z" fill="black" fill-opacity="0.25"/>
<path d="M100.102 90.6066C100.712 88.6557 101.608 86.8632 102.754 85.3392C105.048 82.2944 108.163 80.584 111.408 80.584H101.758C98.0161 81.448 94.6948 83.1551 92.4001 86.2C91.2539 87.724 90.5621 89.7213 89.9521 91.672C89.3761 93.832 89.3761 96.856 90.2401 99.592L90.9601 101.32L92.6881 100.6L93.9841 100.168L95.1361 99.88L96.8641 99.736H99.17V96.8229C99.1698 94.6696 99.4915 92.5607 100.102 90.6066Z" fill="black" fill-opacity="0.25"/>
<path d="M28.5 199C10.8223 199 6.66667 200.333 0 203V256.5H256.5V201H253C249.833 200.333 242.7 199 239.5 199C235.5 199 227.5 199 217.5 201C213 201 187 199 182 196.5C177 194 151.5 196.5 153 199C154.5 201.5 137.748 196.5 125 196.5C112.5 196.5 105.5 203 92 199C87.0886 197.545 74.1667 197.167 66.5 196.5C57.5 199.833 48.5 199 28.5 199Z" fill="#735419"/>
<path d="M32.5636 194.081C24.1472 192.449 7.34768 196.122 0 198.163V215C18 215 12 209.5 17.5 210.5C23 211.5 32.5 215 42.5 215C52.5 215 69 207.5 75 209C81 210.5 93.5 216 105.5 214C117.5 212 131.5 207.5 139 209C146.5 210.5 163.5 216 170.5 215C177.5 214 187 212 191.5 213C196 214 205.5 209 208.5 213C211.5 217 219.5 219 229 216.5C236.6 214.5 250.167 214.667 256 215V194.081C250.656 194.762 238.766 195.714 233.957 194.081C227.945 192.04 201.894 192.041 185.863 194.081C169.832 196.122 162.818 190 148.791 190C134.763 190 134.262 196.122 122.74 194.081C111.217 192.04 103.703 191.531 93.683 194.081C83.6634 196.632 78.1526 194.081 73.6438 194.081H61.6204C55.4416 194.762 40.98 195.714 32.5636 194.081Z" fill="#29A844"/>
</g>
<defs>
<clipPath id="clip0_144_2727">
<rect width="256" height="256" fill="white"/>
</clipPath>
</defs>
</svg>
