<svg width="256" height="256" viewBox="0 0 256 256" fill="none" xmlns="http://www.w3.org/2000/svg">
<g clip-path="url(#clip0_144_2896)">
<rect width="256" height="256" fill="#BAFFFF"/>
<rect x="128.073" y="115.284" width="77.44" height="12.32" transform="rotate(-0.908672 128.073 115.284)" fill="#06B559"/>
<rect x="128.073" y="115.284" width="77.44" height="12.32" transform="rotate(-0.908672 128.073 115.284)" fill="black" fill-opacity="0.25"/>
<rect x="204.754" y="111.251" width="28.864" height="18.304" rx="3.52" transform="rotate(-0.908672 204.754 111.251)" fill="#06B559"/>
<path d="M141.919 103.043V108.876H139.733H114.148V103.043C114.148 100.257 116.405 98 119.191 98H136.876C139.662 98 141.919 100.257 141.919 103.043Z" fill="#06B559"/>
<path d="M164.189 130.713V135.318H89.6921V130.713C89.6921 127.47 90.3351 124.294 91.5538 121.352C92.7728 118.414 94.5632 115.714 96.8537 113.419C101.439 108.833 107.663 106.257 114.148 106.257H139.733C142.976 106.257 146.152 106.9 149.094 108.119C152.033 109.333 154.732 111.124 157.027 113.419C157.484 113.876 157.923 114.347 158.337 114.838C160.666 117.561 162.351 120.757 163.299 124.176C163.884 126.285 164.189 128.485 164.189 130.713Z" fill="#06B559"/>
<path d="M110.838 121.351C112.057 118.413 113.848 115.714 116.138 113.418C120.724 108.833 126.947 106.257 133.433 106.257H114.149C107.663 106.257 101.44 108.833 96.8542 113.418C94.5637 115.714 92.7733 118.413 91.5543 121.351C90.3352 124.294 89.6926 127.47 89.6926 130.713V135.317H108.977V130.713C108.976 127.47 109.619 124.294 110.838 121.351Z" fill="black" fill-opacity="0.25"/>
<path d="M105.887 182.012C105.887 176.445 101.373 171.931 95.8062 171.931C90.235 171.931 85.7207 176.445 85.7207 182.012C85.7207 187.578 90.2347 192.092 95.8062 192.092C101.373 192.092 105.887 187.578 105.887 182.012Z" fill="#999999"/>
<path d="M141.138 183.764C141.138 179.164 137.41 175.436 132.81 175.436C128.215 175.436 124.486 179.164 124.486 183.764C124.486 188.364 128.215 192.092 132.81 192.092C137.41 192.092 141.138 188.364 141.138 183.764Z" fill="#999999"/>
<path d="M183.079 181.369C183.079 175.445 178.275 170.641 172.351 170.641C166.432 170.641 161.628 175.445 161.628 181.369C161.628 187.292 166.432 192.092 172.351 192.092C178.275 192.092 183.079 187.292 183.079 181.369Z" fill="#999999"/>
<path d="M207.821 175.574C209.831 174.207 211.15 171.902 211.15 169.288C211.15 165.093 207.745 161.688 203.55 161.688C199.35 161.688 195.945 165.093 195.945 169.288C195.945 173.488 199.35 176.888 203.55 176.888C205.131 176.888 206.607 176.403 207.821 175.574Z" fill="#999999"/>
<path d="M58.6218 179.998C59.6121 180.355 60.6788 180.55 61.7931 180.55C66.9213 180.55 71.0832 176.393 71.0832 171.26C71.0832 166.132 66.9213 161.97 61.7931 161.97C56.6597 161.97 52.5029 166.131 52.5029 171.26C52.5029 175.269 55.041 178.683 58.5978 179.988C58.6076 179.988 58.6124 179.993 58.6218 179.998Z" fill="#999999"/>
<path d="M207.821 175.573L195.683 187.215C192.426 190.344 188.084 192.091 183.57 192.091H172.351C178.274 192.091 183.079 187.291 183.079 181.368C183.079 175.444 178.274 170.64 172.351 170.64C166.432 170.64 161.627 175.444 161.627 181.368C161.627 187.291 166.432 192.091 172.351 192.091H132.81C137.409 192.091 141.138 188.363 141.138 183.763C141.138 179.163 137.409 175.435 132.81 175.435C128.215 175.435 124.486 179.163 124.486 183.763C124.486 188.363 128.215 192.091 132.81 192.091H95.8063C101.373 192.091 105.887 187.577 105.887 182.011C105.887 176.444 101.373 171.931 95.8063 171.931C90.2351 171.931 85.7207 176.444 85.7207 182.011C85.7207 187.577 90.2347 192.091 95.8063 192.091H88.3447C85.6829 192.091 83.0495 191.572 80.5831 190.572L58.6221 179.996C59.6124 180.354 60.679 180.549 61.7933 180.549C66.9215 180.549 71.0835 176.392 71.0835 171.259C71.0835 166.131 66.9215 161.969 61.7933 161.969L203.55 161.688C199.35 161.688 195.946 165.092 195.946 169.287C195.946 173.487 199.35 176.887 203.55 176.887C205.131 176.887 206.607 176.402 207.821 175.573Z" fill="#06B559"/>
<path d="M207.821 175.573L195.683 187.215C192.426 190.344 188.084 192.091 183.57 192.091H172.351C178.274 192.091 183.079 187.291 183.079 181.368C183.079 175.444 178.274 170.64 172.351 170.64C166.432 170.64 161.627 175.444 161.627 181.368C161.627 187.291 166.432 192.091 172.351 192.091H132.81C137.409 192.091 141.138 188.363 141.138 183.763C141.138 179.163 137.409 175.435 132.81 175.435C128.215 175.435 124.486 179.163 124.486 183.763C124.486 188.363 128.215 192.091 132.81 192.091H95.8063C101.373 192.091 105.887 187.577 105.887 182.011C105.887 176.444 101.373 171.931 95.8063 171.931C90.2351 171.931 85.7207 176.444 85.7207 182.011C85.7207 187.577 90.2347 192.091 95.8063 192.091H88.3447C85.6829 192.091 83.0495 191.572 80.5831 190.572L58.6221 179.996C59.6124 180.354 60.679 180.549 61.7933 180.549C66.9215 180.549 71.0835 176.392 71.0835 171.259C71.0835 166.131 66.9215 161.969 61.7933 161.969L203.55 161.688C199.35 161.688 195.946 165.092 195.946 169.287C195.946 173.487 199.35 176.887 203.55 176.887C205.131 176.887 206.607 176.402 207.821 175.573Z" fill="black" fill-opacity="0.25"/>
<path d="M191.069 149.198H68.9455H62.8125L69.1054 137.239C69.9587 135.618 71.6396 134.603 73.4721 134.603H89.6926H164.19H172.637L191.069 149.198Z" fill="#06B559"/>
<path d="M89.6922 134.603H73.4721C71.6404 134.603 69.9591 135.618 69.1054 137.239L62.8125 149.198H68.9455H87.8101L95.4906 134.603H89.6922Z" fill="#06B559"/>
<path d="M213.085 158.063L205.268 152.769H68.9455C64.3119 152.769 59.8027 153.694 55.5427 155.518L50.8165 157.546L48 150.982L52.7285 148.953C57.8847 146.745 63.3401 145.626 68.9455 145.626H206.364C207.079 145.626 207.776 145.84 208.367 146.241L217.09 152.15L213.085 158.063Z" fill="#06B559"/>
<path d="M90.3352 134.611H73.8298C72.0783 134.611 70.3621 135.27 69.5458 136.501L64.6318 145.699H70.4965H88.5355L95.8798 134.611H90.3352Z" fill="black" fill-opacity="0.25"/>
<path d="M213.085 158.064L205.268 152.77H68.9455C64.3119 152.77 59.8027 153.695 55.5427 155.519L50.8165 157.547L48 150.983L52.7285 148.954C57.8847 146.746 63.3401 145.627 68.9455 145.627H206.364C207.079 145.627 207.776 145.841 208.367 146.242L217.09 152.151L213.085 158.064Z" fill="black" fill-opacity="0.25"/>
<path d="M95.8064 195.187C88.5385 195.187 82.626 189.276 82.626 182.011C82.626 174.746 88.5385 168.835 95.8064 168.835C103.071 168.835 108.982 174.746 108.982 182.011C108.982 189.276 103.071 195.187 95.8064 195.187ZM95.8064 175.026C91.9516 175.026 88.8161 178.16 88.8161 182.012C88.8161 185.863 91.9516 188.997 95.8064 188.997C99.658 188.997 102.792 185.863 102.792 182.012C102.792 178.159 99.658 175.026 95.8064 175.026Z" fill="#373737"/>
<path d="M132.81 195.187C126.513 195.187 121.391 190.062 121.391 183.763C121.391 177.464 126.513 172.34 132.81 172.34C139.108 172.34 144.233 177.464 144.233 183.763C144.233 190.062 139.108 195.187 132.81 195.187ZM132.81 178.53C129.927 178.53 127.581 180.878 127.581 183.763C127.581 186.649 129.927 188.996 132.81 188.996C135.695 188.996 138.043 186.649 138.043 183.763C138.043 180.878 135.695 178.53 132.81 178.53Z" fill="#373737"/>
<path d="M172.351 195.187C164.732 195.187 158.532 188.988 158.532 181.368C158.532 173.746 164.731 167.545 172.351 167.545C179.973 167.545 186.174 173.746 186.174 181.368C186.174 188.988 179.973 195.187 172.351 195.187ZM172.351 173.735C168.145 173.735 164.723 177.16 164.723 181.368C164.723 185.574 168.145 188.996 172.351 188.996C176.56 188.996 179.984 185.574 179.984 181.368C179.984 177.16 176.56 173.735 172.351 173.735Z" fill="#373737"/>
<path d="M203.55 179.983C197.65 179.983 192.85 175.185 192.85 169.288C192.85 163.391 197.65 158.593 203.55 158.593C209.446 158.593 214.244 163.391 214.244 169.288C214.244 172.832 212.493 176.139 209.561 178.133C207.786 179.342 205.707 179.983 203.55 179.983ZM203.55 164.783C201.063 164.783 199.04 166.804 199.04 169.288C199.04 171.771 201.063 173.792 203.55 173.792C204.459 173.792 205.333 173.524 206.076 173.016C206.078 173.016 206.079 173.014 206.081 173.014C207.316 172.173 208.055 170.78 208.055 169.288C208.054 166.804 206.033 164.783 203.55 164.783Z" fill="#373737"/>
<path d="M61.7934 183.644C60.3463 183.644 58.9265 183.397 57.572 182.908C57.5448 182.899 57.518 182.888 57.4916 182.878C52.6548 181.084 49.408 176.421 49.408 171.259C49.408 164.43 54.9638 158.874 61.7934 158.874C68.623 158.874 74.1788 164.43 74.1788 171.259C74.1784 178.089 68.6226 183.644 61.7934 183.644ZM59.7285 177.106C60.3904 177.337 61.0846 177.454 61.7926 177.454C65.2088 177.454 67.9875 174.675 67.9875 171.259C67.9875 167.844 65.2084 165.065 61.7926 165.065C58.3768 165.065 55.5977 167.844 55.5977 171.259C55.5977 173.841 57.22 176.173 59.6376 177.072C59.6687 177.083 59.6986 177.094 59.7285 177.106Z" fill="#373737"/>
<path d="M183.57 195.187H88.3447C85.2805 195.187 82.2778 194.6 79.4204 193.44C79.3593 193.416 79.2995 193.389 79.2404 193.361L57.4034 182.845C52.6151 181.027 49.408 176.389 49.408 171.259C49.408 164.43 54.9638 158.873 61.7934 158.873L203.544 158.592C203.546 158.592 203.548 158.592 203.55 158.592C209.447 158.592 214.245 163.39 214.245 169.287C214.245 172.737 212.586 175.963 209.793 177.97L197.826 189.449C193.975 193.149 188.911 195.187 183.57 195.187ZM81.8333 187.74C83.9221 188.574 86.1121 188.997 88.3443 188.997H183.569C187.304 188.997 190.844 187.571 193.539 184.984L205.678 173.339C205.803 173.22 205.937 173.111 206.08 173.014C207.316 172.174 208.054 170.78 208.054 169.288C208.054 166.806 206.036 164.786 203.554 164.783L61.7989 165.064C58.3768 165.064 55.5981 167.843 55.5981 171.259C55.5981 173.839 57.218 176.17 59.6336 177.071C59.7569 177.113 59.877 177.164 59.9931 177.222L81.8333 187.74Z" fill="#373737"/>
<path d="M28.5 199C10.8223 199 6.66667 200.333 0 203V256.5H256.5V201H253C249.833 200.333 242.7 199 239.5 199C235.5 199 227.5 199 217.5 201C213 201 187 199 182 196.5C177 194 151.5 196.5 153 199C154.5 201.5 137.748 196.5 125 196.5C112.5 196.5 105.5 203 92 199C87.0886 197.545 74.1667 197.167 66.5 196.5C57.5 199.833 48.5 199 28.5 199Z" fill="#735419"/>
<path d="M32.5636 194.081C24.1472 192.449 7.34768 196.122 0 198.163V215C18 215 12 209.5 17.5 210.5C23 211.5 32.5 215 42.5 215C52.5 215 69 207.5 75 209C81 210.5 93.5 216 105.5 214C117.5 212 131.5 207.5 139 209C146.5 210.5 163.5 216 170.5 215C177.5 214 187 212 191.5 213C196 214 205.5 209 208.5 213C211.5 217 219.5 219 229 216.5C236.6 214.5 250.167 214.667 256 215V194.081C250.656 194.762 238.766 195.714 233.957 194.081C227.945 192.04 201.894 192.041 185.863 194.081C169.832 196.122 162.818 190 148.791 190C134.763 190 134.262 196.122 122.74 194.081C111.217 192.04 103.703 191.531 93.683 194.081C83.6634 196.632 78.1526 194.081 73.6438 194.081H61.6204C55.4416 194.762 40.98 195.714 32.5636 194.081Z" fill="#29A844"/>
</g>
<defs>
<clipPath id="clip0_144_2896">
<rect width="256" height="256" fill="white"/>
</clipPath>
</defs>
</svg>
