<svg width="256" height="256" viewBox="0 0 256 256" fill="none" xmlns="http://www.w3.org/2000/svg">
<g clip-path="url(#clip0_144_2763)">
<rect width="256" height="256" fill="#BAFFFF"/>
<rect x="127.901" y="115.06" width="77.44" height="12.32" transform="rotate(-0.269575 127.901 115.06)" fill="#06B559"/>
<rect x="127.901" y="115.06" width="77.44" height="12.32" transform="rotate(-0.269575 127.901 115.06)" fill="black" fill-opacity="0.25"/>
<rect x="204.623" y="111.883" width="28.864" height="18.304" rx="3.52" transform="rotate(-0.269575 204.623 111.883)" fill="#06B559"/>
<path d="M105.224 180.809C105.224 174.686 100.258 169.72 94.1351 169.72C88.0068 169.72 83.041 174.686 83.041 180.809C83.041 186.932 88.0064 191.897 94.1351 191.897C100.258 191.898 105.224 186.932 105.224 180.809Z" fill="#999999"/>
<path d="M144 182.737C144 177.677 139.898 173.576 134.839 173.576C129.784 173.576 125.683 177.677 125.683 182.737C125.683 187.796 129.784 191.898 134.839 191.898C139.898 191.898 144 187.796 144 182.737Z" fill="#999999"/>
<path d="M190.135 180.101C190.135 173.585 184.85 168.3 178.334 168.3C171.823 168.3 166.538 173.585 166.538 180.101C166.538 186.617 171.823 191.897 178.334 191.897C184.85 191.897 190.135 186.617 190.135 180.101Z" fill="#999999"/>
<path d="M217.351 173.727C219.562 172.223 221.013 169.688 221.013 166.813C221.013 162.198 217.267 158.453 212.653 158.453C208.033 158.453 204.288 162.198 204.288 166.813C204.288 171.433 208.033 175.173 212.653 175.173C214.392 175.173 216.016 174.639 217.351 173.727Z" fill="#999999"/>
<path d="M53.232 178.593C54.3213 178.986 55.4946 179.201 56.7204 179.201C62.3614 179.201 66.9395 174.628 66.9395 168.981C66.9395 163.34 62.3614 158.762 56.7204 158.762C51.0737 158.762 46.5012 163.34 46.5012 168.981C46.5012 173.392 49.2931 177.147 53.2056 178.582C53.2164 178.582 53.2216 178.588 53.232 178.593Z" fill="#999999"/>
<path d="M217.351 173.727L204 186.533C200.417 189.975 195.64 191.897 190.675 191.897H178.334C184.85 191.897 190.135 186.617 190.135 180.101C190.135 173.585 184.85 168.3 178.334 168.3C171.823 168.3 166.538 173.585 166.538 180.101C166.538 186.617 171.823 191.897 178.334 191.897H134.839C139.899 191.897 144 187.796 144 182.736C144 177.676 139.899 173.575 134.839 173.575C129.784 173.575 125.683 177.676 125.683 182.736C125.683 187.796 129.784 191.897 134.839 191.897H94.135C100.258 191.897 105.223 186.931 105.223 180.808C105.223 174.685 100.258 169.72 94.135 169.72C88.0067 169.72 83.0409 174.685 83.0409 180.808C83.0409 186.931 88.0063 191.897 94.135 191.897H85.9273C82.9994 191.897 80.1026 191.326 77.3895 190.226L53.2324 178.593C54.3217 178.985 55.4951 179.2 56.7208 179.2C62.3618 179.2 66.94 174.628 66.94 168.981C66.94 163.34 62.3618 158.762 56.7208 158.762L212.653 158.453C208.033 158.453 204.288 162.198 204.288 166.812C204.288 171.432 208.033 175.172 212.653 175.172C214.392 175.173 216.015 174.639 217.351 173.727Z" fill="#06B559"/>
<path d="M217.351 173.727L204 186.533C200.417 189.975 195.64 191.897 190.675 191.897H178.334C184.85 191.897 190.135 186.617 190.135 180.101C190.135 173.585 184.85 168.3 178.334 168.3C171.823 168.3 166.538 173.585 166.538 180.101C166.538 186.617 171.823 191.897 178.334 191.897H134.839C139.899 191.897 144 187.796 144 182.736C144 177.676 139.899 173.575 134.839 173.575C129.784 173.575 125.683 177.676 125.683 182.736C125.683 187.796 129.784 191.897 134.839 191.897H94.135C100.258 191.897 105.223 186.931 105.223 180.808C105.223 174.685 100.258 169.72 94.135 169.72C88.0067 169.72 83.0409 174.685 83.0409 180.808C83.0409 186.931 88.0063 191.897 94.135 191.897H85.9273C82.9994 191.897 80.1026 191.326 77.3895 190.226L53.2324 178.593C54.3217 178.985 55.4951 179.2 56.7208 179.2C62.3618 179.2 66.94 174.628 66.94 168.981C66.94 163.34 62.3618 158.762 56.7208 158.762L212.653 158.453C208.033 158.453 204.288 162.198 204.288 166.812C204.288 171.432 208.033 175.172 212.653 175.172C214.392 175.173 216.015 174.639 217.351 173.727Z" fill="black" fill-opacity="0.25"/>
<path d="M94.1349 195.302C86.1403 195.302 79.6365 188.8 79.6365 180.809C79.6365 172.817 86.1403 166.315 94.1349 166.315C102.126 166.315 108.628 172.817 108.628 180.809C108.628 188.8 102.126 195.302 94.1349 195.302ZM94.1349 173.125C89.8946 173.125 86.4456 176.572 86.4456 180.809C86.4456 185.046 89.8946 188.493 94.1349 188.493C98.3717 188.493 101.819 185.046 101.819 180.809C101.819 176.572 98.3717 173.125 94.1349 173.125Z" fill="#373737"/>
<path d="M134.839 195.302C127.913 195.302 122.278 189.664 122.278 182.736C122.278 175.807 127.913 170.17 134.839 170.17C141.768 170.17 147.405 175.807 147.405 182.736C147.405 189.664 141.768 195.302 134.839 195.302ZM134.839 176.98C131.668 176.98 129.088 179.562 129.088 182.736C129.088 185.91 131.668 188.492 134.839 188.492C138.013 188.492 140.596 185.91 140.596 182.736C140.596 179.562 138.013 176.98 134.839 176.98Z" fill="#373737"/>
<path d="M178.334 195.302C169.953 195.302 163.134 188.483 163.134 180.101C163.134 171.717 169.953 164.896 178.334 164.896C186.719 164.896 193.54 171.717 193.54 180.101C193.54 188.483 186.719 195.302 178.334 195.302ZM178.334 171.705C173.707 171.705 169.943 175.472 169.943 180.101C169.943 184.728 173.707 188.492 178.334 188.492C182.964 188.492 186.731 184.728 186.731 180.101C186.731 175.472 182.964 171.705 178.334 171.705Z" fill="#373737"/>
<path d="M212.653 178.578C206.163 178.578 200.883 173.3 200.883 166.813C200.883 160.327 206.163 155.049 212.653 155.049C219.139 155.049 224.417 160.327 224.417 166.813C224.417 170.712 222.491 174.349 219.265 176.543C217.312 177.873 215.026 178.578 212.653 178.578ZM212.653 161.858C209.917 161.858 207.693 164.081 207.693 166.813C207.693 169.545 209.918 171.768 212.653 171.768C213.653 171.768 214.614 171.473 215.432 170.915C215.434 170.914 215.435 170.913 215.437 170.912C216.796 169.987 217.608 168.455 217.608 166.813C217.608 164.081 215.385 161.858 212.653 161.858Z" fill="#373737"/>
<path d="M56.7209 182.605C55.1291 182.605 53.5673 182.332 52.0773 181.795C52.0475 181.785 52.018 181.773 51.989 181.762C46.6685 179.789 43.0969 174.659 43.0969 168.981C43.0969 161.469 49.2083 155.357 56.7209 155.357C64.2334 155.357 70.3448 161.469 70.3448 168.981C70.3444 176.493 64.233 182.605 56.7209 182.605ZM54.4496 175.412C55.1776 175.667 55.9412 175.796 56.72 175.796C60.4778 175.796 63.5344 172.739 63.5344 168.981C63.5344 165.224 60.4774 162.167 56.72 162.167C52.9626 162.167 49.9056 165.224 49.9056 168.981C49.9056 171.821 51.6901 174.386 54.3495 175.375C54.3837 175.387 54.4166 175.399 54.4496 175.412Z" fill="#373737"/>
<path d="M190.675 195.302H85.9273C82.5568 195.302 79.2538 194.656 76.1106 193.381C76.0434 193.353 75.9776 193.324 75.9126 193.293L51.892 181.726C46.6247 179.726 43.0969 174.625 43.0969 168.981C43.0969 161.469 49.2083 155.357 56.7209 155.357L212.647 155.048C212.649 155.048 212.651 155.048 212.654 155.048C219.14 155.048 224.418 160.325 224.418 166.812C224.418 170.607 222.593 174.155 219.52 176.364L206.357 188.99C202.12 193.06 196.55 195.302 190.675 195.302ZM78.7648 187.11C81.0625 188.028 83.4715 188.493 85.9269 188.493H190.674C194.783 188.493 198.677 186.925 201.641 184.078L214.994 171.27C215.131 171.138 215.279 171.018 215.436 170.911C216.796 169.987 217.608 168.455 217.608 166.813C217.608 164.082 215.388 161.86 212.658 161.858L56.7269 162.167C52.9626 162.167 49.9061 165.224 49.9061 168.981C49.9061 171.819 51.688 174.383 54.3452 175.374C54.4807 175.421 54.6128 175.477 54.7406 175.541L78.7648 187.11Z" fill="#373737"/>
<path d="M200.48 148.008H61.6119H54.6379L61.7937 137.913C62.7639 136.545 64.6753 135.688 66.7591 135.688H85.2035H169.915H179.52L200.48 148.008Z" fill="#06B559"/>
<path d="M69.9361 148.008H208.804H215.778L208.622 137.913C207.652 136.545 205.741 135.688 203.657 135.688H185.212H100.501H90.896L69.9361 148.008Z" fill="#06B559"/>
<path d="M86.4782 135.688H68.0853C66.0082 135.688 64.1017 136.545 63.1337 137.913L55.9978 148.008H62.9524H84.3439L93.0532 135.688H86.4782Z" fill="#06B559"/>
<path d="M226.838 158.519L217.945 152.281H62.8325C57.5601 152.281 52.4294 153.371 47.5823 155.521L42.2047 157.909L39 150.176L44.3803 147.786C50.2471 145.185 56.4544 143.866 62.8325 143.866H219.192C220.004 143.866 220.798 144.119 221.47 144.59L231.396 151.552L226.838 158.519Z" fill="#06B559"/>
<path d="M86.1602 135.688H67.6647C65.0067 135.512 63.0318 136.545 62.1171 137.448L57.3577 144.136L63.9294 143.819H84.1434L92.3733 135.688H86.1602Z" fill="black" fill-opacity="0.25"/>
<path d="M226.838 158.519L217.945 152.281H62.8325C57.5601 152.281 52.4294 153.371 47.5823 155.52L42.2047 157.909L39 150.176L44.3803 147.786C50.2471 145.184 56.4544 143.866 62.8325 143.866H219.192C220.004 143.866 220.798 144.118 221.47 144.59L231.396 151.552L226.838 158.519Z" fill="black" fill-opacity="0.25"/>
<rect x="98.7129" y="101.896" width="35.2" height="4.576" rx="1.056" fill="#06B559"/>
<rect x="98.7129" y="101.896" width="35.2" height="4.576" rx="1.6" fill="black" fill-opacity="0.25"/>
<rect x="100.121" y="106.472" width="32.736" height="3.872" fill="#373737"/>
<rect x="91.3208" y="85" width="3.52" height="27.104" rx="1.76" fill="#373737"/>
<rect x="94.137" y="132.168" width="62.304" height="3.52" fill="#373737"/>
<rect x="84.281" y="110.344" width="78.848" height="21.824" rx="4.8" fill="#06B559"/>
<path d="M94.2554 132.168L104.697 110.344H89.2089C84.8089 110.344 84.6329 112.456 84.2809 113.336C84.1844 117.677 84.2809 125.656 84.2809 129.352C84.2809 130.408 85.8649 132.168 87.9769 132.168H94.2554Z" fill="black" fill-opacity="0.25"/>
<path d="M28.5 199C10.8223 199 6.66667 200.333 0 203V256.5H256.5V201H253C249.833 200.333 242.7 199 239.5 199C235.5 199 227.5 199 217.5 201C213 201 187 199 182 196.5C177 194 151.5 196.5 153 199C154.5 201.5 137.748 196.5 125 196.5C112.5 196.5 105.5 203 92 199C87.0886 197.545 74.1667 197.167 66.5 196.5C57.5 199.833 48.5 199 28.5 199Z" fill="#735419"/>
<path d="M32.5636 194.081C24.1472 192.449 7.34768 196.122 0 198.163V215C18 215 12 209.5 17.5 210.5C23 211.5 32.5 215 42.5 215C52.5 215 69 207.5 75 209C81 210.5 93.5 216 105.5 214C117.5 212 131.5 207.5 139 209C146.5 210.5 163.5 216 170.5 215C177.5 214 187 212 191.5 213C196 214 205.5 209 208.5 213C211.5 217 219.5 219 229 216.5C236.6 214.5 250.167 214.667 256 215V194.081C250.656 194.762 238.766 195.714 233.957 194.081C227.945 192.04 201.894 192.041 185.863 194.081C169.832 196.122 162.818 190 148.791 190C134.763 190 134.262 196.122 122.74 194.081C111.217 192.04 103.703 191.531 93.683 194.081C83.6634 196.632 78.1526 194.081 73.6438 194.081H61.6204C55.4416 194.762 40.98 195.714 32.5636 194.081Z" fill="#29A844"/>
</g>
<defs>
<clipPath id="clip0_144_2763">
<rect width="256" height="256" fill="white"/>
</clipPath>
</defs>
</svg>
