<svg width="256" height="256" viewBox="0 0 256 256" fill="none" xmlns="http://www.w3.org/2000/svg">
<g clip-path="url(#clip0_144_2798)">
<rect width="256" height="256" fill="#BAFFFF"/>
<rect x="128.045" y="101.082" width="77.44" height="12.32" transform="rotate(-0.803204 128.045 101.082)" fill="#06B559"/>
<rect x="128.045" y="101.082" width="77.44" height="12.32" transform="rotate(-0.803204 128.045 101.082)" fill="black" fill-opacity="0.25"/>
<rect x="204.734" y="97.1904" width="28.864" height="18.304" rx="3.52" transform="rotate(-0.803204 204.734 97.1904)" fill="#06B559"/>
<path d="M159.581 106.321L168.104 117.687L127.947 123.758L88.0557 117.687L101.131 100.256C102.673 98.2052 105.088 97 107.652 97H140.94C148.277 97 155.182 100.452 159.581 106.321Z" fill="#06B559"/>
<path d="M125.42 97H107.653C105.089 97 102.673 98.2052 101.132 100.256L88.0562 117.687H105.823L118.899 100.256C120.441 98.2056 122.856 97 125.42 97Z" fill="black" fill-opacity="0.25"/>
<path d="M187.404 120.074L199.74 133.581L119.623 141.236L28.2573 133.581L44.2305 119.718C45.7401 118.408 47.6724 117.687 49.6716 117.687H88.0554H168.104H181.991C184.051 117.687 186.015 118.553 187.404 120.074Z" fill="#06B559"/>
<path d="M44.2305 119.719L28.2573 133.581H58.9897L77.3045 117.687H49.6724C47.6728 117.687 45.7409 118.408 44.2305 119.719Z" fill="black" fill-opacity="0.25"/>
<path d="M218.085 133.581C220.772 133.581 222.13 136.817 220.248 138.735L192.609 166.902H192.599C190.995 154.734 143.11 156.467 143.11 170.196H136.863C136.863 156.467 87.153 156.467 87.153 170.196H80.9056C80.9056 156.467 37.2895 151.344 33.3856 159.963L32.7996 159.906L19.0752 149.787C16.4436 147.847 16.2892 143.968 18.7588 141.824L28.2581 133.581H199.741H218.085Z" fill="#06B559"/>
<path d="M218.085 133.581C220.772 133.581 222.13 136.817 220.248 138.735L192.609 166.902H192.599C190.995 154.734 143.11 156.467 143.11 170.196H136.863C136.863 156.467 87.153 156.467 87.153 170.196H80.9056C80.9056 156.467 37.2895 151.344 33.3856 159.963L32.7996 159.906L19.0752 149.787C16.4436 147.847 16.2892 143.968 18.7588 141.824L28.2581 133.581H199.741H218.085Z" fill="black" fill-opacity="0.25"/>
<path d="M167.963 179.792C173.262 179.792 177.557 175.497 177.557 170.198C177.557 164.899 173.262 160.604 167.963 160.604C162.665 160.604 158.369 164.899 158.369 170.198C158.369 175.497 162.665 179.792 167.963 179.792Z" fill="#999999"/>
<path d="M112.006 180.113C117.482 180.113 121.921 175.674 121.921 170.198C121.921 164.723 117.482 160.284 112.006 160.284C106.531 160.284 102.092 164.723 102.092 170.198C102.092 175.674 106.531 180.113 112.006 180.113Z" fill="#999999"/>
<path d="M56.0518 160.282C61.5273 160.282 65.9664 164.721 65.9664 170.196C65.9664 175.672 61.5273 180.111 56.0518 180.111C50.5708 180.111 46.1321 175.672 46.1321 170.196C46.1321 164.721 50.5704 160.282 56.0518 160.282Z" fill="#999999"/>
<path d="M192.599 166.902C192.748 167.982 192.82 169.082 192.82 170.196C192.82 183.925 181.694 195.051 167.965 195.051C154.241 195.051 143.11 183.925 143.11 170.196C143.11 156.467 154.241 145.341 167.965 145.341C180.58 145.341 190.995 154.734 192.599 166.902ZM176.599 170.196C176.599 165.428 172.734 161.562 167.965 161.562C163.197 161.562 159.331 165.428 159.331 170.196C159.331 174.964 163.197 178.83 167.965 178.83C172.734 178.83 176.599 174.964 176.599 170.196Z" fill="#373737"/>
<path d="M112.008 145.341C125.737 145.341 136.863 156.467 136.863 170.196C136.863 183.925 125.737 195.051 112.008 195.051C98.2794 195.051 87.1533 183.925 87.1533 170.196C87.1533 156.467 98.2794 145.341 112.008 145.341ZM120.642 170.196C120.642 165.428 116.777 161.562 112.008 161.562C107.24 161.562 103.375 165.428 103.375 170.196C103.375 174.964 107.24 178.83 112.008 178.83C116.777 178.83 120.642 174.964 120.642 170.196Z" fill="#373737"/>
<path d="M56.0509 145.341C69.775 145.341 80.9059 156.467 80.9059 170.196C80.9059 183.925 69.775 195.051 56.0509 195.051C42.3221 195.051 31.1912 183.925 31.1912 170.196C31.1912 166.547 31.9787 163.084 33.3855 159.963C37.2898 151.344 45.9672 145.341 56.0509 145.341ZM64.6851 170.196C64.6851 165.428 60.8196 161.562 56.0513 161.562C51.2783 161.562 47.4127 165.428 47.4127 170.196C47.4127 174.964 51.2783 178.83 56.0513 178.83C60.8192 178.83 64.6851 174.964 64.6851 170.196Z" fill="#373737"/>
<path d="M167.965 161.562C172.734 161.562 176.599 165.427 176.599 170.195C176.599 174.964 172.734 178.829 167.965 178.829C163.197 178.829 159.332 174.964 159.332 170.195C159.332 165.427 163.197 161.562 167.965 161.562ZM167.965 156.76C160.557 156.76 154.53 162.787 154.53 170.195C154.53 177.604 160.557 183.631 167.965 183.631C175.374 183.631 181.401 177.604 181.401 170.195C181.401 162.787 175.374 156.76 167.965 156.76Z" fill="black" fill-opacity="0.25"/>
<path d="M112.008 161.562C116.777 161.562 120.642 165.427 120.642 170.195C120.642 174.964 116.777 178.829 112.008 178.829C107.24 178.829 103.375 174.964 103.375 170.195C103.374 165.427 107.24 161.562 112.008 161.562ZM112.008 156.76C104.6 156.76 98.5728 162.787 98.5728 170.195C98.5728 177.604 104.6 183.631 112.008 183.631C119.417 183.631 125.444 177.604 125.444 170.195C125.444 162.787 119.417 156.76 112.008 156.76Z" fill="black" fill-opacity="0.25"/>
<path d="M56.0511 161.562C60.8193 161.562 64.6848 165.427 64.6848 170.195C64.6848 174.964 60.8193 178.829 56.0511 178.829C51.278 178.829 47.4125 174.964 47.4125 170.195C47.4125 165.427 51.278 161.562 56.0511 161.562ZM56.0511 156.76C48.6396 156.76 42.6106 162.787 42.6106 170.195C42.6106 177.604 48.64 183.631 56.0511 183.631C63.4597 183.631 69.4867 177.604 69.4867 170.195C69.4871 162.787 63.4597 156.76 56.0511 156.76Z" fill="black" fill-opacity="0.25"/>
<path d="M28.5 199C10.8223 199 6.66667 200.333 0 203V256.5H256.5V201H253C249.833 200.333 242.7 199 239.5 199C235.5 199 227.5 199 217.5 201C213 201 187 199 182 196.5C177 194 151.5 196.5 153 199C154.5 201.5 137.748 196.5 125 196.5C112.5 196.5 105.5 203 92 199C87.0886 197.545 74.1667 197.167 66.5 196.5C57.5 199.833 48.5 199 28.5 199Z" fill="#735419"/>
<path d="M32.5636 194.081C24.1472 192.449 7.34768 196.122 0 198.163V215C18 215 12 209.5 17.5 210.5C23 211.5 32.5 215 42.5 215C52.5 215 69 207.5 75 209C81 210.5 93.5 216 105.5 214C117.5 212 131.5 207.5 139 209C146.5 210.5 163.5 216 170.5 215C177.5 214 187 212 191.5 213C196 214 205.5 209 208.5 213C211.5 217 219.5 219 229 216.5C236.6 214.5 250.167 214.667 256 215V194.081C250.656 194.762 238.766 195.714 233.957 194.081C227.945 192.04 201.894 192.041 185.863 194.081C169.832 196.122 162.818 190 148.791 190C134.763 190 134.262 196.122 122.74 194.081C111.217 192.04 103.703 191.531 93.683 194.081C83.6634 196.632 78.1526 194.081 73.6438 194.081H61.6204C55.4416 194.762 40.98 195.714 32.5636 194.081Z" fill="#29A844"/>
</g>
<defs>
<clipPath id="clip0_144_2798">
<rect width="256" height="256" fill="white"/>
</clipPath>
</defs>
</svg>
