<svg width="256" height="256" viewBox="0 0 256 256" fill="none" xmlns="http://www.w3.org/2000/svg">
<g clip-path="url(#clip0_144_2819)">
<rect width="256" height="256" fill="#BAFFFF"/>
<rect x="128.012" y="97.8442" width="77.44" height="12.32" transform="rotate(-0.679007 128.012 97.8442)" fill="#06B559"/>
<rect x="128.012" y="97.8442" width="77.44" height="12.32" transform="rotate(-0.679007 128.012 97.8442)" fill="black" fill-opacity="0.25"/>
<rect x="204.709" y="94.1191" width="28.864" height="18.304" rx="3.52" transform="rotate(-0.679007 204.709 94.1191)" fill="#06B559"/>
<path d="M173.416 128.754L140.709 145.314H52.527C50.412 145.314 48.3101 145.47 46.2308 145.78L38.0291 133.999C37.2128 132.826 36.7751 131.432 36.7751 130.003V123.91L117.803 110.629H125.419H139.185H144.833C146.631 110.629 148.385 111.184 149.858 112.217L173.416 128.754Z" fill="#06B559"/>
<path d="M146.173 102.916V111.249H143.05H106.501V102.916C106.501 98.9362 109.725 95.7119 113.705 95.7119H138.969C142.948 95.7119 146.173 98.9362 146.173 102.916Z" fill="#06B559"/>
<path d="M117.803 110.628L110.596 123.909H36.7756C36.7756 121.2 38.3405 118.734 40.7923 117.581L51.617 112.488C54.2206 111.263 57.0631 110.628 59.9405 110.628H117.803Z" fill="#06B559"/>
<path d="M117.803 110.628L110.596 123.909H36.7756C36.7756 121.2 38.3405 118.734 40.7923 117.581L51.617 112.488C54.2206 111.263 57.0631 110.628 59.9405 110.628H117.803Z" fill="black" fill-opacity="0.25"/>
<path d="M214.61 140.699L209.131 145.313H140.708V128.752H173.415H190.478L213.867 136.738C215.571 137.32 215.988 139.539 214.61 140.699Z" fill="#06B559"/>
<path d="M214.61 140.699L209.131 145.313H140.708V128.752H173.416H190.478L213.867 136.738C215.571 137.32 215.988 139.539 214.61 140.699Z" fill="black" fill-opacity="0.25"/>
<path d="M217.206 154.808L208.108 148.646H52.5271C50.5835 148.646 48.6312 148.79 46.7236 149.075C43.3752 149.571 40.0913 150.501 36.9582 151.842L31.5702 154.152L28.9441 148.027L34.334 145.716C37.9958 144.149 41.8332 143.061 45.7433 142.484C47.9708 142.15 50.2546 141.981 52.5271 141.981H209.131C209.798 141.981 210.449 142.181 211 142.555L220.944 149.291L217.206 154.808Z" fill="#06B559"/>
<path d="M217.206 154.808L208.108 148.646H52.5271C50.5835 148.646 48.6312 148.79 46.7236 149.075C43.3752 149.571 40.0913 150.501 36.9582 151.842L31.5702 154.152L28.9441 148.027L34.334 145.716C37.9958 144.149 41.8332 143.061 45.7433 142.484C47.9708 142.15 50.2546 141.981 52.5271 141.981H209.131C209.798 141.981 210.449 142.181 211 142.555L220.944 149.291L217.206 154.808Z" fill="black" fill-opacity="0.25"/>
<path d="M210.76 172.73L211.005 172.498" stroke="#373737" stroke-width="3.6" stroke-miterlimit="10" stroke-linejoin="round"/>
<path d="M96.9137 180.047C96.9137 173.818 91.8621 168.766 85.6326 168.766C79.3978 168.766 74.3462 173.818 74.3462 180.047C74.3462 186.277 79.3978 191.328 85.6326 191.328C91.8617 191.328 96.9137 186.277 96.9137 180.047Z" fill="#999999"/>
<path d="M136.364 182.008C136.364 176.861 132.191 172.688 127.044 172.688C121.901 172.688 117.729 176.861 117.729 182.008C117.729 187.156 121.901 191.328 127.044 191.328C132.191 191.328 136.364 187.156 136.364 182.008Z" fill="#999999"/>
<path d="M183.301 179.328C183.301 172.699 177.924 167.322 171.294 167.322C164.671 167.322 159.294 172.699 159.294 179.328C159.294 185.957 164.67 191.329 171.294 191.329C177.924 191.329 183.301 185.957 183.301 179.328Z" fill="#999999"/>
<path d="M210.99 172.842C213.239 171.313 214.715 168.734 214.715 165.808C214.715 161.114 210.905 157.303 206.21 157.303C201.509 157.303 197.699 161.113 197.699 165.808C197.699 170.508 201.509 174.313 206.21 174.313C207.979 174.313 209.631 173.77 210.99 172.842Z" fill="#999999"/>
<path d="M44.0188 177.793C45.1273 178.193 46.3209 178.411 47.5678 178.411C53.3071 178.411 57.9646 173.759 57.9646 168.015C57.9646 162.275 53.3071 157.618 47.5678 157.618C41.8231 157.618 37.1709 162.275 37.1709 168.015C37.1709 172.501 40.0111 176.322 43.9918 177.782C44.003 177.783 44.0083 177.788 44.0188 177.793Z" fill="#999999"/>
<path d="M210.99 172.843L197.406 185.872C193.761 189.373 188.901 191.329 183.849 191.329H171.294C177.923 191.329 183.301 185.957 183.301 179.328C183.301 172.699 177.924 167.322 171.294 167.322C164.671 167.322 159.294 172.698 159.294 179.328C159.294 185.957 164.67 191.329 171.294 191.329H127.043C132.191 191.329 136.364 187.156 136.364 182.008C136.364 176.861 132.191 172.688 127.043 172.688C121.901 172.688 117.728 176.861 117.728 182.008C117.728 187.156 121.901 191.329 127.043 191.329H85.632C91.8615 191.329 96.9132 186.277 96.9132 180.048C96.9132 173.818 91.8615 168.766 85.632 168.766C79.3973 168.766 74.3457 173.818 74.3457 180.048C74.3457 186.277 79.3973 191.329 85.632 191.329H77.2819C74.3033 191.329 71.3562 190.748 68.5958 189.629L44.019 177.793C45.1275 178.192 46.3212 178.411 47.568 178.411C53.3074 178.411 57.9649 173.759 57.9649 168.014C57.9649 162.275 53.3074 157.617 47.568 157.617L206.21 157.303C201.51 157.303 197.7 161.113 197.7 165.808C197.7 170.508 201.51 174.313 206.21 174.313C207.979 174.313 209.631 173.77 210.99 172.843Z" fill="#06B559"/>
<path d="M210.99 172.843L197.406 185.872C193.761 189.373 188.901 191.329 183.849 191.329H171.294C177.923 191.329 183.301 185.957 183.301 179.328C183.301 172.699 177.924 167.322 171.294 167.322C164.671 167.322 159.294 172.698 159.294 179.328C159.294 185.957 164.67 191.329 171.294 191.329H127.043C132.191 191.329 136.364 187.156 136.364 182.008C136.364 176.861 132.191 172.688 127.043 172.688C121.901 172.688 117.728 176.861 117.728 182.008C117.728 187.156 121.901 191.329 127.043 191.329H85.632C91.8615 191.329 96.9132 186.277 96.9132 180.048C96.9132 173.818 91.8615 168.766 85.632 168.766C79.3973 168.766 74.3457 173.818 74.3457 180.048C74.3457 186.277 79.3973 191.329 85.632 191.329H77.2819C74.3033 191.329 71.3562 190.748 68.5958 189.629L44.019 177.793C45.1275 178.192 46.3212 178.411 47.568 178.411C53.3074 178.411 57.9649 173.759 57.9649 168.014C57.9649 162.275 53.3074 157.617 47.568 157.617L206.21 157.303C201.51 157.303 197.7 161.113 197.7 165.808C197.7 170.508 201.51 174.313 206.21 174.313C207.979 174.313 209.631 173.77 210.99 172.843Z" fill="black" fill-opacity="0.25"/>
<path d="M85.6321 194.793C77.4987 194.793 70.8818 188.178 70.8818 180.047C70.8818 171.917 77.4987 165.302 85.6321 165.302C93.7625 165.302 100.377 171.917 100.377 180.047C100.377 188.178 93.7628 194.793 85.6321 194.793ZM85.6321 172.23C81.3185 172.23 77.8092 175.737 77.8092 180.048C77.8092 184.359 81.3185 187.865 85.6321 187.865C89.9427 187.865 93.4497 184.358 93.4497 180.048C93.4497 175.737 89.9431 172.23 85.6321 172.23Z" fill="#373737"/>
<path d="M127.043 194.793C119.997 194.793 114.264 189.058 114.264 182.009C114.264 174.96 119.997 169.225 127.043 169.225C134.093 169.225 139.827 174.96 139.827 182.009C139.827 189.058 134.093 194.793 127.043 194.793ZM127.043 176.152C123.817 176.152 121.192 178.78 121.192 182.009C121.192 185.238 123.817 187.866 127.043 187.866C130.272 187.866 132.9 185.238 132.9 182.009C132.9 178.78 130.272 176.152 127.043 176.152Z" fill="#373737"/>
<path d="M171.294 194.793C162.767 194.793 155.83 187.855 155.83 179.328C155.83 170.798 162.767 163.858 171.294 163.858C179.824 163.858 186.764 170.799 186.764 179.328C186.764 187.856 179.825 194.793 171.294 194.793ZM171.294 170.786C166.587 170.786 162.758 174.618 162.758 179.328C162.758 184.036 166.587 187.865 171.294 187.865C176.005 187.865 179.837 184.036 179.837 179.328C179.837 174.618 176.005 170.786 171.294 170.786Z" fill="#373737"/>
<path d="M206.21 177.778C199.607 177.778 194.236 172.408 194.236 165.809C194.236 159.209 199.607 153.84 206.21 153.84C212.809 153.84 218.179 159.209 218.179 165.809C218.179 169.775 216.219 173.476 212.937 175.707C210.951 177.061 208.625 177.778 206.21 177.778ZM206.21 160.768C203.427 160.768 201.163 163.029 201.163 165.808C201.163 168.588 203.427 170.849 206.21 170.849C207.227 170.849 208.205 170.549 209.037 169.981C209.039 169.979 209.04 169.979 209.042 169.978C210.424 169.037 211.25 167.478 211.25 165.808C211.251 163.029 208.99 160.768 206.21 160.768Z" fill="#373737"/>
<path d="M47.5678 181.876C45.9485 181.876 44.3593 181.599 42.8435 181.052C42.8128 181.042 42.7832 181.03 42.7532 181.018C37.3404 179.011 33.707 173.792 33.707 168.016C33.707 160.373 39.9249 154.155 47.5674 154.155C55.2103 154.155 61.4278 160.373 61.4278 168.016C61.4285 175.658 55.2107 181.876 47.5678 181.876ZM45.2578 174.558C45.9984 174.817 46.775 174.948 47.5682 174.948C51.3913 174.948 54.5012 171.838 54.5012 168.015C54.5012 164.192 51.3909 161.082 47.5682 161.082C43.7454 161.082 40.6352 164.192 40.6352 168.015C40.6352 170.904 42.4505 173.514 45.1562 174.52C45.1903 174.532 45.224 174.545 45.2578 174.558Z" fill="#373737"/>
<path d="M183.85 194.793H77.2821C73.8528 194.793 70.4924 194.136 67.2944 192.839C67.2265 192.811 67.159 192.781 67.0926 192.75L42.655 180.981C37.2963 178.947 33.7075 173.757 33.7075 168.015C33.7075 160.372 39.9254 154.155 47.5679 154.155L206.203 153.84C206.205 153.84 206.208 153.84 206.21 153.84C212.809 153.84 218.179 159.21 218.179 165.809C218.179 169.671 216.322 173.28 213.196 175.527L199.804 188.373C195.495 192.512 189.828 194.793 183.85 194.793ZM69.9955 186.459C72.3336 187.392 74.7839 187.865 77.2821 187.865H183.85C188.03 187.865 191.992 186.27 195.007 183.374L208.592 170.343C208.732 170.209 208.882 170.087 209.042 169.978C210.425 169.038 211.251 167.479 211.251 165.809C211.251 163.031 208.992 160.771 206.215 160.768L47.575 161.082C43.7455 161.082 40.6356 164.193 40.6356 168.015C40.6356 170.902 42.4484 173.511 45.1518 174.519C45.2894 174.567 45.424 174.624 45.5541 174.688L69.9955 186.459Z" fill="#373737"/>
<path d="M28.5 199C10.8223 199 6.66667 200.333 0 203V256.5H256.5V201H253C249.833 200.333 242.7 199 239.5 199C235.5 199 227.5 199 217.5 201C213 201 187 199 182 196.5C177 194 151.5 196.5 153 199C154.5 201.5 137.748 196.5 125 196.5C112.5 196.5 105.5 203 92 199C87.0886 197.545 74.1667 197.167 66.5 196.5C57.5 199.833 48.5 199 28.5 199Z" fill="#735419"/>
<path d="M32.5636 194.081C24.1472 192.449 7.34768 196.122 0 198.163V215C18 215 12 209.5 17.5 210.5C23 211.5 32.5 215 42.5 215C52.5 215 69 207.5 75 209C81 210.5 93.5 216 105.5 214C117.5 212 131.5 207.5 139 209C146.5 210.5 163.5 216 170.5 215C177.5 214 187 212 191.5 213C196 214 205.5 209 208.5 213C211.5 217 219.5 219 229 216.5C236.6 214.5 250.167 214.667 256 215V194.081C250.656 194.762 238.766 195.714 233.957 194.081C227.945 192.04 201.894 192.041 185.863 194.081C169.832 196.122 162.818 190 148.791 190C134.763 190 134.262 196.122 122.74 194.081C111.217 192.04 103.703 191.531 93.683 194.081C83.6634 196.632 78.1526 194.081 73.6438 194.081H61.6204C55.4416 194.762 40.98 195.714 32.5636 194.081Z" fill="#29A844"/>
</g>
<defs>
<clipPath id="clip0_144_2819">
<rect width="256" height="256" fill="white"/>
</clipPath>
</defs>
</svg>
